<mxfile host="Electron" agent="Mozilla/5.0 (X11; Linux x86_64) AppleWebKit/537.36 (KHTML, like Gecko) draw.io/24.7.17 Chrome/128.0.6613.36 Electron/32.0.1 Safari/537.36" version="24.7.17">
  <diagram name="Page-1" id="XKuFGBFuqH11n4ffUUHy">
    <mxGraphModel dx="2324" dy="1600" grid="0" gridSize="10" guides="1" tooltips="1" connect="1" arrows="1" fold="1" page="1" pageScale="1" pageWidth="1169" pageHeight="827" math="0" shadow="0">
      <root>
        <mxCell id="0" />
        <mxCell id="1" parent="0" />
        <mxCell id="M98I_Dfe5uiVffybFT3l-1" value="Atendente" style="shape=umlActor;verticalLabelPosition=bottom;verticalAlign=top;html=1;" parent="1" vertex="1">
          <mxGeometry x="-1110" y="-530" width="30" height="60" as="geometry" />
        </mxCell>
        <mxCell id="M98I_Dfe5uiVffybFT3l-3" value="UsuÃ¡rio&lt;div&gt;&lt;br&gt;&lt;/div&gt;" style="shape=umlActor;verticalLabelPosition=bottom;verticalAlign=top;html=1;" parent="1" vertex="1">
          <mxGeometry x="-1038" y="-530" width="30" height="60" as="geometry" />
        </mxCell>
        <mxCell id="M98I_Dfe5uiVffybFT3l-4" value="Administrador" style="shape=umlActor;verticalLabelPosition=bottom;verticalAlign=top;html=1;" parent="1" vertex="1">
          <mxGeometry x="-962" y="-484" width="30" height="60" as="geometry" />
        </mxCell>
        <mxCell id="M98I_Dfe5uiVffybFT3l-5" value="&lt;div&gt;SGBD&lt;/div&gt;" style="shape=umlActor;verticalLabelPosition=bottom;verticalAlign=top;html=1;" parent="1" vertex="1">
          <mxGeometry x="-94" y="-556" width="53" height="91" as="geometry" />
        </mxCell>
        <mxCell id="M98I_Dfe5uiVffybFT3l-7" value="Login" style="ellipse;whiteSpace=wrap;html=1;" parent="1" vertex="1">
          <mxGeometry x="-706.5" y="-528" width="93" height="56" as="geometry" />
        </mxCell>
        <mxCell id="M98I_Dfe5uiVffybFT3l-10" value="Gerenciar&lt;div&gt;Produto&lt;/div&gt;" style="ellipse;whiteSpace=wrap;html=1;" parent="1" vertex="1">
          <mxGeometry x="-418" y="-346" width="125" height="68" as="geometry" />
        </mxCell>
        <mxCell id="M98I_Dfe5uiVffybFT3l-11" value="&lt;div&gt;Gerenciar&lt;br&gt;&lt;/div&gt;&lt;div&gt;Unidade&lt;/div&gt;" style="ellipse;whiteSpace=wrap;html=1;" parent="1" vertex="1">
          <mxGeometry x="-620" y="-440" width="114" height="60" as="geometry" />
        </mxCell>
        <mxCell id="M98I_Dfe5uiVffybFT3l-12" value="Gerenciar&lt;div&gt;Categoria&lt;/div&gt;" style="ellipse;whiteSpace=wrap;html=1;" parent="1" vertex="1">
          <mxGeometry x="-941" y="-320" width="118" height="61" as="geometry" />
        </mxCell>
        <mxCell id="M98I_Dfe5uiVffybFT3l-16" value="Include" style="endArrow=open;endSize=12;dashed=1;html=1;rounded=0;fontSize=12;curved=1;" parent="1" source="M98I_Dfe5uiVffybFT3l-11" target="M98I_Dfe5uiVffybFT3l-7" edge="1">
          <mxGeometry x="-0.001" width="160" relative="1" as="geometry">
            <mxPoint x="-714" y="-508" as="sourcePoint" />
            <mxPoint x="-794.5" y="-417" as="targetPoint" />
            <mxPoint as="offset" />
          </mxGeometry>
        </mxCell>
        <mxCell id="M98I_Dfe5uiVffybFT3l-18" value="Include" style="endArrow=open;endSize=12;dashed=1;html=1;rounded=0;fontSize=12;curved=1;bendable=1;" parent="1" source="M98I_Dfe5uiVffybFT3l-10" target="M98I_Dfe5uiVffybFT3l-7" edge="1">
          <mxGeometry x="-0.1391" y="16" width="160" relative="1" as="geometry">
            <mxPoint x="-670" y="-548" as="sourcePoint" />
            <mxPoint x="-780" y="-602" as="targetPoint" />
            <mxPoint as="offset" />
            <Array as="points">
              <mxPoint x="-417" y="-429" />
            </Array>
          </mxGeometry>
        </mxCell>
        <mxCell id="M98I_Dfe5uiVffybFT3l-19" value="Include" style="endArrow=open;endSize=12;dashed=1;html=1;rounded=0;fontSize=12;" parent="1" source="M98I_Dfe5uiVffybFT3l-12" target="M98I_Dfe5uiVffybFT3l-7" edge="1">
          <mxGeometry x="-0.0727" y="3" width="160" relative="1" as="geometry">
            <mxPoint x="-456" y="-424" as="sourcePoint" />
            <mxPoint x="-416" y="-358" as="targetPoint" />
            <mxPoint as="offset" />
          </mxGeometry>
        </mxCell>
        <mxCell id="M98I_Dfe5uiVffybFT3l-20" value="Adicionar&lt;div&gt;produto&lt;/div&gt;" style="ellipse;whiteSpace=wrap;html=1;" parent="1" vertex="1">
          <mxGeometry x="-369" y="-448" width="84" height="41" as="geometry" />
        </mxCell>
        <mxCell id="M98I_Dfe5uiVffybFT3l-21" value="Extends" style="endArrow=open;endSize=12;dashed=1;html=1;rounded=0;fontSize=12;curved=1;" parent="1" source="M98I_Dfe5uiVffybFT3l-20" target="M98I_Dfe5uiVffybFT3l-10" edge="1">
          <mxGeometry x="-0.001" width="160" relative="1" as="geometry">
            <mxPoint x="-383.5" y="-625" as="sourcePoint" />
            <mxPoint x="-526.5" y="-605" as="targetPoint" />
            <mxPoint as="offset" />
          </mxGeometry>
        </mxCell>
        <mxCell id="M98I_Dfe5uiVffybFT3l-22" value="Alterar&lt;div&gt;&lt;span style=&quot;background-color: initial;&quot;&gt;produto&lt;/span&gt;&lt;/div&gt;" style="ellipse;whiteSpace=wrap;html=1;" parent="1" vertex="1">
          <mxGeometry x="-272" y="-465" width="67" height="41" as="geometry" />
        </mxCell>
        <mxCell id="M98I_Dfe5uiVffybFT3l-23" value="Extends" style="endArrow=open;endSize=12;dashed=1;html=1;rounded=0;fontSize=12;curved=1;" parent="1" source="M98I_Dfe5uiVffybFT3l-22" target="M98I_Dfe5uiVffybFT3l-10" edge="1">
          <mxGeometry x="-0.001" width="160" relative="1" as="geometry">
            <mxPoint x="-306.5" y="-554" as="sourcePoint" />
            <mxPoint x="-453.5" y="-536" as="targetPoint" />
            <mxPoint as="offset" />
          </mxGeometry>
        </mxCell>
        <mxCell id="M98I_Dfe5uiVffybFT3l-24" value="Excluir&lt;div&gt;&lt;span style=&quot;background-color: initial;&quot;&gt;produto&lt;/span&gt;&lt;/div&gt;" style="ellipse;whiteSpace=wrap;html=1;" parent="1" vertex="1">
          <mxGeometry x="-237" y="-413" width="64" height="41" as="geometry" />
        </mxCell>
        <mxCell id="M98I_Dfe5uiVffybFT3l-25" value="Extends" style="endArrow=open;endSize=12;dashed=1;html=1;rounded=0;fontSize=12;curved=1;" parent="1" source="M98I_Dfe5uiVffybFT3l-24" target="M98I_Dfe5uiVffybFT3l-10" edge="1">
          <mxGeometry x="0.0026" width="160" relative="1" as="geometry">
            <mxPoint x="-281.5" y="-514.5" as="sourcePoint" />
            <mxPoint x="-428.5" y="-496.5" as="targetPoint" />
            <mxPoint as="offset" />
          </mxGeometry>
        </mxCell>
        <mxCell id="M98I_Dfe5uiVffybFT3l-26" value="Adicionar&lt;div&gt;categoria&lt;/div&gt;" style="ellipse;whiteSpace=wrap;html=1;" parent="1" vertex="1">
          <mxGeometry x="-1096" y="-368" width="85" height="45" as="geometry" />
        </mxCell>
        <mxCell id="M98I_Dfe5uiVffybFT3l-27" value="Extends" style="endArrow=open;endSize=12;dashed=1;html=1;rounded=0;fontSize=12;curved=1;" parent="1" source="M98I_Dfe5uiVffybFT3l-26" target="M98I_Dfe5uiVffybFT3l-12" edge="1">
          <mxGeometry x="-0.2034" width="160" relative="1" as="geometry">
            <mxPoint x="-488" y="9" as="sourcePoint" />
            <mxPoint x="-587" y="128" as="targetPoint" />
            <mxPoint as="offset" />
          </mxGeometry>
        </mxCell>
        <mxCell id="M98I_Dfe5uiVffybFT3l-28" value="Alterar&lt;div&gt;categoria&lt;/div&gt;" style="ellipse;whiteSpace=wrap;html=1;" parent="1" vertex="1">
          <mxGeometry x="-1083" y="-310" width="68" height="41" as="geometry" />
        </mxCell>
        <mxCell id="M98I_Dfe5uiVffybFT3l-29" value="Extends" style="endArrow=open;endSize=12;dashed=1;html=1;rounded=0;fontSize=12;curved=1;" parent="1" source="M98I_Dfe5uiVffybFT3l-28" target="M98I_Dfe5uiVffybFT3l-12" edge="1">
          <mxGeometry x="-0.001" width="160" relative="1" as="geometry">
            <mxPoint x="-411" y="80" as="sourcePoint" />
            <mxPoint x="-565" y="134" as="targetPoint" />
            <mxPoint as="offset" />
          </mxGeometry>
        </mxCell>
        <mxCell id="M98I_Dfe5uiVffybFT3l-30" value="Excluir&lt;div&gt;categoria&lt;/div&gt;" style="ellipse;whiteSpace=wrap;html=1;" parent="1" vertex="1">
          <mxGeometry x="-1068" y="-240.5" width="75" height="41" as="geometry" />
        </mxCell>
        <mxCell id="M98I_Dfe5uiVffybFT3l-31" value="Extends" style="endArrow=open;endSize=12;dashed=1;html=1;rounded=0;fontSize=12;curved=1;" parent="1" source="M98I_Dfe5uiVffybFT3l-30" target="M98I_Dfe5uiVffybFT3l-12" edge="1">
          <mxGeometry x="-0.1792" y="-4" width="160" relative="1" as="geometry">
            <mxPoint x="-386" y="119.5" as="sourcePoint" />
            <mxPoint x="-552" y="143" as="targetPoint" />
            <mxPoint as="offset" />
          </mxGeometry>
        </mxCell>
        <mxCell id="M98I_Dfe5uiVffybFT3l-32" value="Adicionar&lt;div&gt;unidade&lt;/div&gt;" style="ellipse;whiteSpace=wrap;html=1;" parent="1" vertex="1">
          <mxGeometry x="-646" y="-339" width="80" height="41" as="geometry" />
        </mxCell>
        <mxCell id="M98I_Dfe5uiVffybFT3l-33" value="Extends" style="endArrow=open;endSize=12;dashed=1;html=1;rounded=0;fontSize=12;curved=1;" parent="1" source="M98I_Dfe5uiVffybFT3l-32" target="M98I_Dfe5uiVffybFT3l-11" edge="1">
          <mxGeometry x="-0.1034" width="160" relative="1" as="geometry">
            <mxPoint x="-370" y="-373" as="sourcePoint" />
            <mxPoint x="-427" y="-397" as="targetPoint" />
            <mxPoint as="offset" />
          </mxGeometry>
        </mxCell>
        <mxCell id="M98I_Dfe5uiVffybFT3l-34" value="Extends" style="endArrow=open;endSize=12;dashed=1;html=1;rounded=0;fontSize=12;curved=1;" parent="1" source="M98I_Dfe5uiVffybFT3l-37" target="M98I_Dfe5uiVffybFT3l-11" edge="1">
          <mxGeometry x="-0.001" width="160" relative="1" as="geometry">
            <mxPoint x="-314" y="-379" as="sourcePoint" />
            <mxPoint x="-421" y="-385" as="targetPoint" />
            <mxPoint as="offset" />
          </mxGeometry>
        </mxCell>
        <mxCell id="M98I_Dfe5uiVffybFT3l-35" value="Excluir&lt;div&gt;unidade&lt;/div&gt;" style="ellipse;whiteSpace=wrap;html=1;" parent="1" vertex="1">
          <mxGeometry x="-553" y="-326" width="67" height="41" as="geometry" />
        </mxCell>
        <mxCell id="M98I_Dfe5uiVffybFT3l-36" value="Extends" style="endArrow=open;endSize=12;dashed=1;html=1;rounded=0;fontSize=12;curved=1;" parent="1" source="M98I_Dfe5uiVffybFT3l-35" target="M98I_Dfe5uiVffybFT3l-11" edge="1">
          <mxGeometry x="-0.1804" width="160" relative="1" as="geometry">
            <mxPoint x="-268" y="-262.5" as="sourcePoint" />
            <mxPoint x="-433" y="-374" as="targetPoint" />
            <mxPoint as="offset" />
          </mxGeometry>
        </mxCell>
        <mxCell id="M98I_Dfe5uiVffybFT3l-37" value="Alterar&lt;div&gt;unidade&lt;/div&gt;" style="ellipse;whiteSpace=wrap;html=1;" parent="1" vertex="1">
          <mxGeometry x="-486" y="-361" width="65" height="41" as="geometry" />
        </mxCell>
        <mxCell id="M98I_Dfe5uiVffybFT3l-38" value="Cadastrar&lt;div&gt;Cliente&lt;/div&gt;" style="ellipse;whiteSpace=wrap;html=1;" parent="1" vertex="1">
          <mxGeometry x="-772" y="-652" width="86" height="41" as="geometry" />
        </mxCell>
        <mxCell id="M98I_Dfe5uiVffybFT3l-40" value="Cadastrar&lt;div&gt;Pedido&lt;/div&gt;" style="ellipse;whiteSpace=wrap;html=1;" parent="1" vertex="1">
          <mxGeometry x="-566" y="-634" width="71" height="41" as="geometry" />
        </mxCell>
        <mxCell id="M98I_Dfe5uiVffybFT3l-41" value="Extends" style="endArrow=open;endSize=12;dashed=1;html=1;rounded=0;fontSize=12;" parent="1" source="M98I_Dfe5uiVffybFT3l-40" target="M98I_Dfe5uiVffybFT3l-39" edge="1">
          <mxGeometry x="-0.2377" width="160" relative="1" as="geometry">
            <mxPoint x="-256" y="-634.5" as="sourcePoint" />
            <mxPoint x="-399" y="-614.5" as="targetPoint" />
            <mxPoint as="offset" />
          </mxGeometry>
        </mxCell>
        <mxCell id="M98I_Dfe5uiVffybFT3l-42" value="Alterar&lt;div&gt;&lt;span style=&quot;background-color: initial;&quot;&gt;Pedido&lt;/span&gt;&lt;/div&gt;" style="ellipse;whiteSpace=wrap;html=1;" parent="1" vertex="1">
          <mxGeometry x="-502" y="-691" width="87.5" height="41" as="geometry" />
        </mxCell>
        <mxCell id="M98I_Dfe5uiVffybFT3l-43" value="Extends" style="endArrow=open;endSize=12;dashed=1;html=1;rounded=0;fontSize=12;curved=1;" parent="1" source="M98I_Dfe5uiVffybFT3l-42" target="M98I_Dfe5uiVffybFT3l-39" edge="1">
          <mxGeometry x="-0.001" width="160" relative="1" as="geometry">
            <mxPoint x="-179" y="-563.5" as="sourcePoint" />
            <mxPoint x="-326" y="-545.5" as="targetPoint" />
            <mxPoint as="offset" />
          </mxGeometry>
        </mxCell>
        <mxCell id="M98I_Dfe5uiVffybFT3l-48" value="Atualizar estado&lt;div&gt;de Pedido&lt;/div&gt;" style="ellipse;whiteSpace=wrap;html=1;" parent="1" vertex="1">
          <mxGeometry x="-623" y="-693" width="112" height="45" as="geometry" />
        </mxCell>
        <mxCell id="M98I_Dfe5uiVffybFT3l-55" value="Extends" style="endArrow=open;endSize=12;dashed=1;html=1;rounded=0;fontSize=12;" parent="1" source="M98I_Dfe5uiVffybFT3l-48" target="M98I_Dfe5uiVffybFT3l-39" edge="1">
          <mxGeometry x="-0.001" width="160" relative="1" as="geometry">
            <mxPoint x="-320.5" y="-640" as="sourcePoint" />
            <mxPoint x="-472.5" y="-574" as="targetPoint" />
            <mxPoint as="offset" />
          </mxGeometry>
        </mxCell>
        <mxCell id="M98I_Dfe5uiVffybFT3l-56" value="Gerenciar&lt;div&gt;Cliente&lt;/div&gt;" style="ellipse;whiteSpace=wrap;html=1;" parent="1" vertex="1">
          <mxGeometry x="-909" y="-586" width="125" height="68" as="geometry" />
        </mxCell>
        <mxCell id="M98I_Dfe5uiVffybFT3l-57" value="Extends" style="endArrow=open;endSize=12;dashed=1;html=1;rounded=0;fontSize=12;curved=1;" parent="1" source="M98I_Dfe5uiVffybFT3l-38" target="M98I_Dfe5uiVffybFT3l-56" edge="1">
          <mxGeometry x="-0.001" width="160" relative="1" as="geometry">
            <mxPoint x="-390" y="-805.5" as="sourcePoint" />
            <mxPoint x="-592" y="-776.5" as="targetPoint" />
            <mxPoint as="offset" />
          </mxGeometry>
        </mxCell>
        <mxCell id="M98I_Dfe5uiVffybFT3l-58" value="Include" style="endArrow=open;endSize=12;dashed=1;html=1;rounded=0;fontSize=12;curved=1;" parent="1" source="M98I_Dfe5uiVffybFT3l-56" target="M98I_Dfe5uiVffybFT3l-7" edge="1">
          <mxGeometry width="160" relative="1" as="geometry">
            <mxPoint x="-742" y="-758" as="sourcePoint" />
            <mxPoint x="-916" y="-711" as="targetPoint" />
          </mxGeometry>
        </mxCell>
        <mxCell id="M98I_Dfe5uiVffybFT3l-59" value="Alterar&lt;div&gt;&lt;span style=&quot;background-color: initial;&quot;&gt;Cliente&lt;/span&gt;&lt;/div&gt;" style="ellipse;whiteSpace=wrap;html=1;" parent="1" vertex="1">
          <mxGeometry x="-700" y="-616.5" width="67" height="41" as="geometry" />
        </mxCell>
        <mxCell id="M98I_Dfe5uiVffybFT3l-60" value="Extends" style="endArrow=open;endSize=12;dashed=1;html=1;rounded=0;fontSize=12;curved=1;" parent="1" source="M98I_Dfe5uiVffybFT3l-59" target="M98I_Dfe5uiVffybFT3l-56" edge="1">
          <mxGeometry x="-0.1452" width="160" relative="1" as="geometry">
            <mxPoint x="-723" y="-717" as="sourcePoint" />
            <mxPoint x="-810" y="-686" as="targetPoint" />
            <mxPoint as="offset" />
          </mxGeometry>
        </mxCell>
        <mxCell id="M98I_Dfe5uiVffybFT3l-65" value="Include" style="endArrow=open;endSize=12;dashed=1;html=1;rounded=0;fontSize=12;bendable=1;editable=1;movable=1;resizable=1;rotatable=1;deletable=1;locked=0;connectable=1;strokeColor=default;" parent="1" source="M98I_Dfe5uiVffybFT3l-39" target="M98I_Dfe5uiVffybFT3l-7" edge="1">
          <mxGeometry x="0.2611" y="1" width="160" relative="1" as="geometry">
            <mxPoint x="-673" y="-724" as="sourcePoint" />
            <mxPoint x="-749" y="-536" as="targetPoint" />
            <mxPoint as="offset" />
          </mxGeometry>
        </mxCell>
        <mxCell id="M98I_Dfe5uiVffybFT3l-73" value="" style="endArrow=open;html=1;rounded=0;fontSize=12;startSize=8;endSize=8;endFill=0;curved=1;" parent="1" source="M98I_Dfe5uiVffybFT3l-11" target="M98I_Dfe5uiVffybFT3l-5" edge="1">
          <mxGeometry relative="1" as="geometry">
            <mxPoint x="-596" y="-388" as="sourcePoint" />
            <mxPoint x="75" y="-462" as="targetPoint" />
            <Array as="points">
              <mxPoint x="-357" y="-501" />
            </Array>
          </mxGeometry>
        </mxCell>
        <mxCell id="M98I_Dfe5uiVffybFT3l-75" value="" style="endArrow=open;html=1;rounded=0;fontSize=12;startSize=8;endSize=8;endFill=0;curved=1;" parent="1" source="M98I_Dfe5uiVffybFT3l-10" target="M98I_Dfe5uiVffybFT3l-5" edge="1">
          <mxGeometry relative="1" as="geometry">
            <mxPoint x="-371" y="-506" as="sourcePoint" />
            <mxPoint x="75" y="-465" as="targetPoint" />
            <Array as="points">
              <mxPoint x="-97" y="-365" />
            </Array>
          </mxGeometry>
        </mxCell>
        <mxCell id="M98I_Dfe5uiVffybFT3l-78" value="" style="endArrow=open;html=1;rounded=0;fontSize=12;startSize=8;endSize=8;endFill=0;" parent="1" source="M98I_Dfe5uiVffybFT3l-39" target="M98I_Dfe5uiVffybFT3l-5" edge="1">
          <mxGeometry relative="1" as="geometry">
            <mxPoint x="-286" y="-602" as="sourcePoint" />
            <mxPoint x="75" y="-469" as="targetPoint" />
          </mxGeometry>
        </mxCell>
        <mxCell id="M98I_Dfe5uiVffybFT3l-80" value="" style="endArrow=open;html=1;rounded=0;fontSize=12;startSize=8;endSize=8;endFill=0;curved=1;" parent="1" source="M98I_Dfe5uiVffybFT3l-39" target="M98I_Dfe5uiVffybFT3l-5" edge="1">
          <mxGeometry relative="1" as="geometry">
            <mxPoint x="-203" y="-746" as="sourcePoint" />
            <mxPoint x="75" y="-478" as="targetPoint" />
            <Array as="points" />
          </mxGeometry>
        </mxCell>
        <mxCell id="M98I_Dfe5uiVffybFT3l-82" value="" style="endArrow=open;html=1;rounded=0;fontSize=12;startSize=8;endSize=8;endFill=0;curved=1;" parent="1" source="M98I_Dfe5uiVffybFT3l-7" target="M98I_Dfe5uiVffybFT3l-5" edge="1">
          <mxGeometry relative="1" as="geometry">
            <mxPoint x="-677" y="-760" as="sourcePoint" />
            <mxPoint x="75" y="-470" as="targetPoint" />
            <Array as="points">
              <mxPoint x="-325" y="-549" />
            </Array>
          </mxGeometry>
        </mxCell>
        <mxCell id="M98I_Dfe5uiVffybFT3l-83" value="" style="endArrow=open;html=1;rounded=0;fontSize=12;startSize=8;endSize=8;endFill=0;curved=1;" parent="1" source="M98I_Dfe5uiVffybFT3l-3" target="M98I_Dfe5uiVffybFT3l-7" edge="1">
          <mxGeometry relative="1" as="geometry">
            <mxPoint x="-1366" y="-647" as="sourcePoint" />
            <mxPoint x="-901" y="-673" as="targetPoint" />
          </mxGeometry>
        </mxCell>
        <mxCell id="M98I_Dfe5uiVffybFT3l-84" value="" style="endArrow=open;html=1;rounded=0;fontSize=12;startSize=8;endSize=8;endFill=0;curved=1;" parent="1" source="M98I_Dfe5uiVffybFT3l-1" target="M98I_Dfe5uiVffybFT3l-3" edge="1">
          <mxGeometry relative="1" as="geometry">
            <mxPoint x="-1280" y="-304" as="sourcePoint" />
            <mxPoint x="-980" y="-423" as="targetPoint" />
          </mxGeometry>
        </mxCell>
        <mxCell id="M98I_Dfe5uiVffybFT3l-85" value="" style="endArrow=open;html=1;rounded=0;fontSize=12;startSize=8;endSize=8;endFill=0;curved=1;" parent="1" source="M98I_Dfe5uiVffybFT3l-4" target="M98I_Dfe5uiVffybFT3l-3" edge="1">
          <mxGeometry relative="1" as="geometry">
            <mxPoint x="-1235" y="-503" as="sourcePoint" />
            <mxPoint x="-1286" y="-328" as="targetPoint" />
          </mxGeometry>
        </mxCell>
        <mxCell id="M98I_Dfe5uiVffybFT3l-89" value="" style="endArrow=open;html=1;rounded=0;fontSize=12;startSize=8;endSize=8;endFill=0;curved=1;" parent="1" source="M98I_Dfe5uiVffybFT3l-3" target="M98I_Dfe5uiVffybFT3l-56" edge="1">
          <mxGeometry relative="1" as="geometry">
            <mxPoint x="-1046" y="-634" as="sourcePoint" />
            <mxPoint x="-1248" y="-604" as="targetPoint" />
          </mxGeometry>
        </mxCell>
        <mxCell id="M98I_Dfe5uiVffybFT3l-90" value="" style="endArrow=open;html=1;rounded=0;fontSize=12;startSize=8;endSize=8;endFill=0;curved=1;" parent="1" source="M98I_Dfe5uiVffybFT3l-3" target="M98I_Dfe5uiVffybFT3l-39" edge="1">
          <mxGeometry relative="1" as="geometry">
            <mxPoint x="-1112" y="-465" as="sourcePoint" />
            <mxPoint x="-908" y="-735" as="targetPoint" />
            <Array as="points">
              <mxPoint x="-509" y="-861" />
            </Array>
          </mxGeometry>
        </mxCell>
        <mxCell id="M98I_Dfe5uiVffybFT3l-95" value="" style="endArrow=open;html=1;rounded=0;fontSize=12;startSize=8;endSize=8;endFill=0;curved=1;" parent="1" source="M98I_Dfe5uiVffybFT3l-4" target="M98I_Dfe5uiVffybFT3l-12" edge="1">
          <mxGeometry relative="1" as="geometry">
            <mxPoint x="-1101" y="-162" as="sourcePoint" />
            <mxPoint x="-637" y="-226" as="targetPoint" />
            <Array as="points" />
          </mxGeometry>
        </mxCell>
        <mxCell id="M98I_Dfe5uiVffybFT3l-96" value="" style="endArrow=open;html=1;rounded=0;fontSize=12;startSize=8;endSize=8;endFill=0;curved=1;" parent="1" source="M98I_Dfe5uiVffybFT3l-4" target="M98I_Dfe5uiVffybFT3l-11" edge="1">
          <mxGeometry relative="1" as="geometry">
            <mxPoint x="-1091" y="-322" as="sourcePoint" />
            <mxPoint x="-704" y="-199" as="targetPoint" />
          </mxGeometry>
        </mxCell>
        <mxCell id="M98I_Dfe5uiVffybFT3l-97" value="" style="endArrow=open;html=1;rounded=0;fontSize=12;startSize=8;endSize=8;endFill=0;curved=1;" parent="1" source="M98I_Dfe5uiVffybFT3l-4" target="M98I_Dfe5uiVffybFT3l-10" edge="1">
          <mxGeometry relative="1" as="geometry">
            <mxPoint x="-1091" y="-327" as="sourcePoint" />
            <mxPoint x="-903" y="-332" as="targetPoint" />
            <Array as="points">
              <mxPoint x="-605" y="-208" />
            </Array>
          </mxGeometry>
        </mxCell>
        <mxCell id="M98I_Dfe5uiVffybFT3l-98" value="Include" style="endArrow=open;endSize=12;dashed=1;html=1;rounded=0;fontSize=12;curved=1;" parent="1" source="M98I_Dfe5uiVffybFT3l-40" target="M98I_Dfe5uiVffybFT3l-38" edge="1">
          <mxGeometry x="-0.1441" y="1" width="160" relative="1" as="geometry">
            <mxPoint x="-396" y="-793" as="sourcePoint" />
            <mxPoint x="-582" y="-914" as="targetPoint" />
            <mxPoint as="offset" />
            <Array as="points">
              <mxPoint x="-641" y="-638" />
            </Array>
          </mxGeometry>
        </mxCell>
        <mxCell id="M98I_Dfe5uiVffybFT3l-101" value="" style="endArrow=open;html=1;rounded=0;fontSize=12;startSize=8;endSize=8;endFill=0;curved=1;" parent="1" source="M98I_Dfe5uiVffybFT3l-12" target="M98I_Dfe5uiVffybFT3l-5" edge="1">
          <mxGeometry relative="1" as="geometry">
            <mxPoint x="-523" y="-285" as="sourcePoint" />
            <mxPoint x="75" y="-471" as="targetPoint" />
            <Array as="points">
              <mxPoint x="-158" y="-180" />
            </Array>
          </mxGeometry>
        </mxCell>
        <mxCell id="2QEqcZYY6lTfA5Ny0Ply-1" value="&lt;div&gt;Gerenciar&lt;br&gt;&lt;/div&gt;&lt;div&gt;UsuÃ¡&lt;span style=&quot;background-color: initial;&quot;&gt;rio&lt;/span&gt;&lt;/div&gt;" style="ellipse;whiteSpace=wrap;html=1;" vertex="1" parent="1">
          <mxGeometry x="-784" y="-250" width="114" height="60" as="geometry" />
        </mxCell>
        <mxCell id="2QEqcZYY6lTfA5Ny0Ply-2" value="Cadastrar&lt;div&gt;UsuÃ¡&lt;span style=&quot;background-color: initial;&quot;&gt;rio&lt;/span&gt;&lt;br&gt;&lt;/div&gt;" style="ellipse;whiteSpace=wrap;html=1;" vertex="1" parent="1">
          <mxGeometry x="-955" y="-214" width="80" height="41" as="geometry" />
        </mxCell>
        <mxCell id="2QEqcZYY6lTfA5Ny0Ply-3" value="Extends" style="endArrow=open;endSize=12;dashed=1;html=1;rounded=0;fontSize=12;curved=1;" edge="1" parent="1" source="2QEqcZYY6lTfA5Ny0Ply-2" target="2QEqcZYY6lTfA5Ny0Ply-1">
          <mxGeometry x="-0.1034" width="160" relative="1" as="geometry">
            <mxPoint x="-322.5" y="-71" as="sourcePoint" />
            <mxPoint x="-379.5" y="-95" as="targetPoint" />
            <mxPoint as="offset" />
          </mxGeometry>
        </mxCell>
        <mxCell id="2QEqcZYY6lTfA5Ny0Ply-4" value="Extends" style="endArrow=open;endSize=12;dashed=1;html=1;rounded=0;fontSize=12;curved=1;" edge="1" parent="1" source="2QEqcZYY6lTfA5Ny0Ply-7" target="2QEqcZYY6lTfA5Ny0Ply-1">
          <mxGeometry x="-0.001" width="160" relative="1" as="geometry">
            <mxPoint x="-266.5" y="-77" as="sourcePoint" />
            <mxPoint x="-373.5" y="-83" as="targetPoint" />
            <mxPoint as="offset" />
          </mxGeometry>
        </mxCell>
        <mxCell id="2QEqcZYY6lTfA5Ny0Ply-5" value="Desativar&lt;div&gt;UsuÃ¡&lt;span style=&quot;background-color: initial;&quot;&gt;rio&lt;/span&gt;&lt;br&gt;&lt;/div&gt;" style="ellipse;whiteSpace=wrap;html=1;" vertex="1" parent="1">
          <mxGeometry x="-811" y="-145" width="67" height="41" as="geometry" />
        </mxCell>
        <mxCell id="2QEqcZYY6lTfA5Ny0Ply-6" value="Extends" style="endArrow=open;endSize=12;dashed=1;html=1;rounded=0;fontSize=12;curved=1;" edge="1" parent="1" source="2QEqcZYY6lTfA5Ny0Ply-5" target="2QEqcZYY6lTfA5Ny0Ply-1">
          <mxGeometry x="-0.1804" width="160" relative="1" as="geometry">
            <mxPoint x="-220.5" y="39.5" as="sourcePoint" />
            <mxPoint x="-385.5" y="-72" as="targetPoint" />
            <mxPoint as="offset" />
          </mxGeometry>
        </mxCell>
        <mxCell id="2QEqcZYY6lTfA5Ny0Ply-7" value="Alterar&lt;div&gt;UsuÃ¡&lt;span style=&quot;background-color: initial;&quot;&gt;rio&lt;/span&gt;&lt;br&gt;&lt;/div&gt;" style="ellipse;whiteSpace=wrap;html=1;" vertex="1" parent="1">
          <mxGeometry x="-905" y="-161" width="65" height="41" as="geometry" />
        </mxCell>
        <mxCell id="2QEqcZYY6lTfA5Ny0Ply-8" value="Include" style="endArrow=open;endSize=12;dashed=1;html=1;rounded=0;fontSize=12;" edge="1" parent="1" source="2QEqcZYY6lTfA5Ny0Ply-1" target="M98I_Dfe5uiVffybFT3l-7">
          <mxGeometry x="0.1142" y="-2" width="160" relative="1" as="geometry">
            <mxPoint x="-842" y="-266" as="sourcePoint" />
            <mxPoint x="-687" y="-466" as="targetPoint" />
            <mxPoint as="offset" />
          </mxGeometry>
        </mxCell>
        <mxCell id="2QEqcZYY6lTfA5Ny0Ply-9" value="" style="endArrow=open;html=1;rounded=0;fontSize=12;startSize=8;endSize=8;endFill=0;curved=1;" edge="1" parent="1" source="M98I_Dfe5uiVffybFT3l-4" target="2QEqcZYY6lTfA5Ny0Ply-1">
          <mxGeometry relative="1" as="geometry">
            <mxPoint x="-936" y="-354" as="sourcePoint" />
            <mxPoint x="-888" y="-269" as="targetPoint" />
            <Array as="points" />
          </mxGeometry>
        </mxCell>
        <mxCell id="2QEqcZYY6lTfA5Ny0Ply-10" value="" style="endArrow=open;html=1;rounded=0;fontSize=12;startSize=8;endSize=8;endFill=0;curved=1;" edge="1" parent="1" source="2QEqcZYY6lTfA5Ny0Ply-1" target="M98I_Dfe5uiVffybFT3l-5">
          <mxGeometry relative="1" as="geometry">
            <mxPoint x="-936" y="-369" as="sourcePoint" />
            <mxPoint x="-716" y="-204" as="targetPoint" />
            <Array as="points">
              <mxPoint x="-113" y="-170" />
            </Array>
          </mxGeometry>
        </mxCell>
        <mxCell id="2QEqcZYY6lTfA5Ny0Ply-11" value="" style="endArrow=open;html=1;rounded=0;fontSize=12;startSize=8;endSize=8;endFill=0;" edge="1" parent="1" source="M98I_Dfe5uiVffybFT3l-56" target="M98I_Dfe5uiVffybFT3l-39">
          <mxGeometry relative="1" as="geometry">
            <mxPoint x="-818" y="-551" as="sourcePoint" />
            <mxPoint x="-457" y="-559" as="targetPoint" />
          </mxGeometry>
        </mxCell>
        <mxCell id="M98I_Dfe5uiVffybFT3l-39" value="Gerenciar&lt;div&gt;Pedido&lt;/div&gt;" style="ellipse;whiteSpace=wrap;html=1;" parent="1" vertex="1">
          <mxGeometry x="-392" y="-630" width="125" height="68" as="geometry" />
        </mxCell>
      </root>
    </mxGraphModel>
  </diagram>
</mxfile>
